v 0.5 0.5 -0.198657
v 0 0 -1.00224
v -0.5 0.5 -0.198657
v -0.5 -0.5 -0.198657
v 0 0 -0.002238
v 0.5 -0.5 -0.198657
vn -0 0.8491 -0.5283
vn -0.8491 -0 -0.5283
vn -0 0.3656 0.9308
vn 0.8491 -0 -0.5283
vn -0 -0.8491 -0.5283
vn -0 -0.3656 0.9308
vn 0.3656 -0 0.9308
vn -0.3656 -0 0.9308
vt 0.375 0.75
vt 0.625 1
vt 0.375 1
vt 0.375 0
vt 0.625 0.25
vt 0.375 0.25
vt 0.375 0.5
vt 0.625 0.75
vt 0.625 0.5
f 1/1/1 2/2/1 3/3/1
f 3/4/2 2/5/2 4/6/2
f 1/1/3 3/3/3 5/1/3
f 6/7/4 2/8/4 1/1/4
f 4/6/5 2/9/5 6/7/5
f 4/6/6 6/7/6 5/6/6
f 6/7/7 1/1/7 5/7/7
f 3/4/8 4/6/8 5/4/8
