g 
v -0.5 0.5 -0.5
v 0.5 0.5 0.5
v 0.5 0.5 -0.5
v -0.5 -0.5 0.5
v 0.5 -0.5 0.5
v -0.5 0.5 0.5
v -0.5 -0.5 -0.5
v 0.5 -0.5 -0.5
vn 0 1 0
vn 0 0 1
vn -1 0 0
vn 0 -1 0
vn 1 0 0
vn 0 0 -1
vt 0.875 0.5
vt 0.625 0.75
vt 0.625 0.5
vt 0.375 1
vt 0.375 0.75
vt 0.625 0
vt 0.375 0.25
vt 0.375 0
vt 0.375 0.5
vt 0.125 0.75
vt 0.125 0.5
vt 0.625 0.25
vt 0.875 0.75
vt 0.625 1
f 1/1/1 2/2/1 3/3/1
f 2/2/2 4/4/2 5/5/2
f 6/6/3 7/7/3 4/8/3
f 8/9/4 4/10/4 7/11/4
f 3/3/5 5/5/5 8/9/5
f 1/12/6 8/9/6 7/7/6
f 1/1/1 6/13/1 2/2/1
f 2/2/2 6/14/2 4/4/2
f 6/6/3 1/12/3 7/7/3
f 8/9/4 5/5/4 4/10/4
f 3/3/5 2/2/5 5/5/5
f 1/12/6 3/3/6 8/9/6